<?xml version="1.0" standalone="no"?>
<!DOCTYPE svg PUBLIC "-//W3C//DTD SVG 20010904//EN"
 "http://www.w3.org/TR/2001/REC-SVG-20010904/DTD/svg10.dtd">
<svg version="1.0" xmlns="http://www.w3.org/2000/svg"
 width="750.000000pt" height="750.000000pt" viewBox="0 0 750.000000 750.000000"
 preserveAspectRatio="xMidYMid meet">
<metadata>
Created by potrace 1.14, written by Peter Selinger 2001-2017
</metadata>
<g transform="translate(0.000000,750.000000) scale(0.100000,-0.100000)"
fill="#000000" stroke="none">
<path d="M3995 5100 c-20 -22 -44 -28 -26 -6 9 11 5 13 -21 12 -27 -1 -47 -17
-123 -94 -145 -149 -321 -396 -509 -715 -168 -284 -411 -566 -469 -544 -19 7
-54 129 -72 248 -9 58 -18 189 -19 290 -5 242 -4 231 -18 226 -15 -4 -40 47
-32 67 3 8 1 38 -4 67 -10 54 0 89 25 89 18 0 28 61 12 71 -21 13 -42 11 -36
-5 6 -16 -49 -86 -68 -86 -8 0 -19 -9 -25 -20 -6 -11 -15 -20 -20 -20 -11 0
-5 65 9 103 16 41 14 49 -8 38 -21 -12 -31 -5 -31 20 0 33 -21 31 -53 -6 -28
-32 -39 -37 -89 -42 -48 -5 -59 -3 -64 11 -3 9 -10 13 -15 10 -5 -3 -9 0 -9 5
0 6 -6 11 -14 11 -10 0 -12 7 -8 23 5 21 4 21 -19 -5 -30 -32 -90 -45 -109
-23 -34 41 -56 10 -109 -151 -22 -65 -53 -151 -69 -190 -63 -151 -242 -490
-437 -829 -127 -221 -219 -397 -249 -477 -24 -63 -24 -68 -8 -68 10 0 24 6 31
13 11 10 13 8 8 -10 -4 -20 -1 -23 21 -23 15 0 36 7 46 15 23 17 50 20 41 5
-4 -7 3 -8 22 -3 15 4 46 6 68 4 22 -1 68 -3 103 -4 43 -1 62 -6 62 -14 0 -7
5 -13 10 -13 6 0 10 4 10 8 0 5 18 17 39 27 37 16 50 31 57 63 1 7 15 34 30
60 16 26 27 52 26 59 -3 13 27 73 78 158 20 33 49 80 63 105 14 25 36 57 49
72 13 15 31 39 41 53 11 15 21 24 24 21 4 -3 12 2 19 12 11 15 13 13 22 -18
l10 -35 1 34 c1 32 2 33 15 16 13 -18 13 -18 24 1 14 25 28 11 50 -51 13 -36
23 -49 39 -50 11 -1 47 -29 80 -63 32 -34 65 -62 73 -62 8 0 -3 16 -25 35 -21
20 -35 38 -31 42 3 3 16 -3 29 -15 59 -56 172 -69 286 -32 35 11 91 20 125 21
92 1 178 21 186 45 4 10 5 22 3 27 -2 4 9 12 25 18 16 5 49 33 74 62 53 62 71
90 40 63 -12 -11 -22 -15 -22 -11 0 14 50 94 64 102 14 8 48 55 112 151 19 28
37 52 39 52 3 0 2 -15 -1 -32 -6 -31 -5 -31 27 17 18 28 57 93 86 145 29 52
53 89 53 82 0 -7 -5 -23 -11 -34 -24 -45 11 -4 66 76 32 47 61 83 66 81 9 -6
-49 -149 -125 -306 -31 -64 -56 -124 -56 -132 0 -9 -4 -18 -9 -21 -4 -3 -11
-24 -15 -47 -4 -23 -15 -61 -26 -85 -11 -23 -20 -47 -20 -52 0 -15 -57 -199
-89 -287 -16 -44 -35 -100 -41 -125 -7 -25 -40 -126 -73 -225 -55 -167 -60
-188 -65 -292 -4 -96 -2 -117 13 -139 13 -20 19 -23 25 -13 7 10 11 10 23 0
10 -7 38 -11 74 -9 l58 3 -2 43 c-2 49 3 53 20 15 11 -27 12 -25 14 27 4 93
24 163 52 187 20 18 23 24 13 31 -11 7 -8 15 12 37 14 15 26 36 26 46 0 9 11
30 24 46 12 15 21 34 19 41 -3 7 1 10 10 7 9 -4 13 -16 10 -33 -3 -20 1 -16
12 13 27 66 42 89 65 101 20 11 62 84 58 102 -4 20 55 125 73 129 21 6 69 97
114 218 37 99 139 301 143 282 2 -8 -6 -34 -17 -56 -19 -37 -28 -72 -16 -59 6
5 102 221 112 248 2 8 -5 4 -17 -10 l-23 -25 8 25 c4 14 14 33 22 42 8 9 17
36 20 60 3 24 9 45 12 48 12 10 31 50 31 66 0 9 9 31 19 48 11 17 27 54 36 81
9 28 25 68 35 91 31 69 100 275 116 349 9 39 17 96 18 128 3 65 -3 69 -59 35
-28 -16 -39 -18 -44 -9 -6 9 -16 8 -40 -7 -38 -23 -77 -18 -84 10 -4 14 -11
19 -21 15 -18 -7 -36 20 -28 43 4 11 0 11 -21 -3 -33 -21 -35 -12 -5 20 16 17
18 22 6 18 -9 -4 -19 -2 -23 4 -9 16 -20 14 -40 -9z"/>
<path d="M5566 4654 c-5 -12 -14 -15 -36 -10 -17 3 -30 2 -30 -3 0 -4 -21 -9
-46 -10 -26 0 -51 -4 -57 -8 -6 -4 -27 -7 -46 -9 -70 -4 -228 -46 -346 -92
-104 -41 -122 -51 -133 -77 -23 -52 -28 -60 -55 -75 -22 -12 -32 -12 -61 -2
-23 8 -41 10 -53 4 -10 -5 -31 -15 -48 -22 -64 -27 -100 -45 -103 -52 -9 -20
-22 -5 -22 25 0 19 -3 37 -6 40 -13 12 -45 -43 -53 -90 -32 -181 -55 -290 -80
-368 -73 -226 -190 -492 -409 -925 -166 -329 -210 -443 -178 -469 8 -7 20 -10
26 -6 5 3 10 1 10 -6 0 -8 4 -8 13 -2 6 6 41 9 77 8 36 -1 71 2 78 8 9 7 16 5
25 -7 10 -14 18 -15 40 -7 17 7 36 7 52 1 16 -6 26 -6 31 1 3 6 15 9 25 6 11
-3 34 0 53 5 31 10 36 17 62 94 15 46 35 91 45 100 16 14 20 14 51 -2 18 -9
45 -26 60 -37 15 -11 30 -18 33 -16 2 3 -22 24 -55 48 -60 42 -70 57 -49 78 8
8 19 2 40 -20 16 -16 29 -34 29 -39 0 -4 11 -6 25 -2 16 4 25 2 25 -5 0 -6 20
-21 44 -33 l44 -21 34 20 c30 18 38 19 59 7 42 -23 44 -15 3 20 -52 45 -38 63
30 40 55 -19 66 -14 37 17 -30 32 -22 43 33 49 l48 5 -32 24 c-25 18 -29 25
-19 32 8 5 22 6 32 3 10 -3 25 0 33 7 11 9 18 8 33 -5 16 -15 23 -16 42 -5 14
7 48 10 93 7 61 -5 130 0 211 15 11 2 29 8 40 14 11 6 26 8 33 6 7 -3 21 2 30
10 21 19 123 60 130 52 3 -3 16 5 29 17 18 17 26 19 32 10 6 -10 24 -4 72 23
117 67 222 149 339 265 90 89 129 136 173 212 75 126 91 164 117 280 l22 98
-25 52 c-32 71 -83 98 -278 149 -82 21 -152 39 -154 39 -14 0 1 33 60 130 86
142 105 186 105 241 0 68 -35 96 -170 133 -58 15 -115 32 -128 37 -37 14 -79
11 -86 -7z m-296 -503 c0 -5 -7 -14 -15 -21 -11 -9 -13 -15 -5 -20 7 -5 -3
-18 -27 -37 -62 -48 -142 -103 -152 -103 -5 0 -14 -7 -22 -16 -11 -13 -9 -14
14 -9 23 6 26 4 21 -9 -4 -10 -13 -15 -22 -11 -20 7 -42 -12 -43 -39 0 -16
-17 -29 -64 -53 -35 -18 -67 -28 -70 -23 -3 5 2 24 11 42 10 18 33 78 53 133
l36 100 48 17 c114 43 237 68 237 49z m410 -491 c0 -30 -58 -116 -137 -203
-163 -180 -344 -314 -521 -382 -125 -48 -131 -47 -223 16 -13 9 -41 20 -61 23
-29 5 -40 3 -56 -14 -16 -18 -21 -19 -31 -6 -10 12 -8 23 9 57 13 25 18 44 12
48 -5 3 -9 17 -8 31 1 23 5 25 52 26 36 0 64 8 95 27 24 15 63 36 87 47 23 12
42 25 42 30 0 13 354 180 382 180 4 0 49 19 100 43 51 24 96 45 100 46 61 20
118 35 151 40 4 0 7 -4 7 -9z"/>
</g>
</svg>
